<?xml version="1.0" encoding="UTF-8"?>
<svg id="PARTES_-_COR" data-name="PARTES - COR" xmlns="http://www.w3.org/2000/svg" width="510mm" height="510mm" viewBox="0 0 1445.67 1445.67">
  <defs>
    <style>
      .cls-1 {
        letter-spacing: 0em;
      }

      .cls-2, .cls-3 {
        fill: #1e3629;
      }

      .cls-2, .cls-4 {
        stroke-width: 0px;
      }

      .cls-3 {
        font-family: LTRenovate-Bold, 'LT Renovate';
        font-size: 208.55px;
        font-weight: 700;
      }

      .cls-4 {
        fill: #d5d900;
      }

      .cls-5 {
        letter-spacing: -.12em;
      }
    </style>
  </defs>
  <g>
    <path class="cls-4" d="M436.4,736.43s2.48-55.39,56.25-94.17c53.76-38.78,102.19-18.82,125.76,22.29,0,0-16.41-2.18-24.49,18.31,0,0-19.01-2.31-19.59-24.87,0,0-92.23-15.41-137.93,78.44Z"/>
    <path class="cls-2" d="M569.73,662.56s-59.3-6.79-104.73,42.33c-13.01,14.07-22.34,31.11-27.89,49.46-6.3,20.84-25.02,62.01-78.23,88.31,0,0,89.03,13.53,139.14-65.04,50.12-78.58,63.79-83.98,95.31-89.52,0,0-22.74.17-23.6-25.53Z"/>
    <path class="cls-4" d="M165.37,932.02l268.6-209.63s-2.12,70.48-73.4,111.55c-1.46.84-2.92,1.66-4.4,2.45-2.66,1.41-6.04,8.12-10.82,20.02l-92.67,57.11c-7.73,4.72-16.34,7.85-25.3,9.19l-62.01,9.3Z"/>
    <path class="cls-2" d="M596.45,686.73s3.93-17.78,24.58-17.63l21.86,17.6-46.44.04Z"/>
    <path class="cls-2" d="M475.95,617.18l29.34,8.44s44.31-33.34,95.28,6.32l-77.76-90.82-3.31,51.6-43.55,24.45Z"/>
    <path class="cls-4" d="M176.91,513.65l292.47,138.3s-29.76,28.72-38.1,63.23l-153.64-44.21-100.72-157.32Z"/>
    <path class="cls-2" d="M262.24,674.66l165.29,47.57-18.63,13.48s-41.01-8.8-87.86,11.7l-58.81-72.74Z"/>
    <path class="cls-4" d="M310.27,760.33s40.16-24.52,91.09-19.16l-44.87,32.46-46.22-13.3Z"/>
    <path class="cls-4" d="M358.07,892.83s21.8-1.32,42.11,11.53l14.14-7.94-29.97-18.34-26.29,14.76Z"/>
    <path class="cls-2" d="M405.05,841.14l-14.58,33.68,78.54,48.08s-15.21-51.61-63.96-81.76Z"/>
    <path class="cls-4" d="M482.69,906.64c-12.75-32.45-42.28-43.24-42.28-43.24,0,0,18.16,17.85,29.78,43.6l12.51-.36Z"/>
  </g>
  <text class="cls-3" transform="translate(562.68 860.82)"><tspan x="0" y="0">RE</tspan><tspan class="cls-5" x="255.47" y="0">V</tspan><tspan class="cls-1" x="388.94" y="0">ALI</tspan></text>
</svg>