<?xml version="1.0" encoding="UTF-8"?>
<svg id="Camada_2" data-name="Camada 2" xmlns="http://www.w3.org/2000/svg" width="510mm" height="510mm" viewBox="0 0 1445.67 1445.67">
  <defs>
    <style>
      .cls-1 {
        font-family: LTRenovate-Bold, 'LT Renovate';
        font-size: 229.2px;
        font-weight: 700;
      }

      .cls-1, .cls-2 {
        fill: #1e3629;
      }

      .cls-3 {
        letter-spacing: 0em;
      }

      .cls-2, .cls-4 {
        stroke-width: 0px;
      }

      .cls-4 {
        fill: #d5d900;
      }

      .cls-5 {
        letter-spacing: -.12em;
      }
    </style>
  </defs>
  <g>
    <g>
      <path class="cls-2" d="M1107.28,539.55l-51.35-34.92c-1.28-.87-3.01-.66-4.04.49l-17.97,20.07c-2.4,2.67-1.86,6.85,1.12,8.84l3.72,2.48c1.92,1.28,4.16,2,6.46,2.07l61.72,2.03c.59.02.83-.74.35-1.07Z"/>
      <path class="cls-4" d="M1069.97,509.74s-27.65-59.05-103.43-74.84c-75.78-15.79-167.16,110.94-191.47,174.1,0,0,45.73-71.05,111.17-101.21,53.27-24.55,109.67-23.31,109.67-23.31,0,0-2.84,25.26,10.42,36,13.26,10.74,18.31,9.16,18.31,9.16l27.23-28.68c1.4-1.48,3.69-1.69,5.33-.49l12.77,9.27Z"/>
      <path class="cls-4" d="M616.26,720.06c64.52-41.6,159.56-127.59,159.56-127.59,0,0-7.89,44.21-60.94,106.73-53.05,62.52-58.42,87.47-58.42,87.47l-181.88,114.72c-11.47,7.23-24.25,12.13-37.61,14.41l-96.28,16.44,252.61-196.01c7.4-5.74,15.09-11.1,22.96-16.17Z"/>
      <path class="cls-4" d="M571.2,648.99l102.31-21.47,14.57-3.41c13.54-3.17,27.54-3.83,41.32-1.96h0s-62.21,52.42-62.21,52.42l-95.99-25.58Z"/>
      <path class="cls-4" d="M775.82,820.45s30.08,19.42,43.1,61.1l23.68,7.34s-22.26-44.05-66.78-68.44Z"/>
      <polygon class="cls-4" points="698.37 842 735.06 865.92 726.32 883.21 661.9 861.19 698.37 842"/>
      <path class="cls-2" d="M892.43,438.17c40.31-25.07,94.2-22.02,130.71,6.86,10.2,8.07,21.02,18.36,32.1,31.5l-142.08-166.7,2.97,74.72-53.08,33.73-14.59,10.77,37.4,13.62s2.2-1.79,6.56-4.51Z"/>
      <path class="cls-4" d="M843.1,489.18l-484.63-228.28,180.31,257.59,233.14,67.83s39.61-63.49,71.18-97.14Z"/>
      <path class="cls-2" d="M767.61,592.47l-274.08-81.47,95.05,129.78s95.69-30.45,147.46-23.05l31.58-25.26Z"/>
      <path class="cls-2" d="M816.31,904.05c5.19-54.82-86.28-118.96-86.28-118.96l-28.1,54.63,114.39,64.34Z"/>
    </g>
    <path class="cls-2" d="M665.93,782.88s6.7-19.63,16.95-32.79l51.34-65.91c12.52-16.07,24.12-32.85,34.61-50.31,11.95-19.89,30.51-51.45,56.04-76.04,43.3-41.7,103.51-65.78,163.77-65.78,0,0,1.75,42.64,38.84,43.89,0,0-3.92,8.61-27.54,11.18-23.62,2.58-27.9,8.07-46.48,30.22-18.59,22.15-77.81,101.92-77.81,101.92,0,0-99.83,141.18-209.72,103.6Z"/>
  </g>
  <text class="cls-1" transform="translate(328.5 1131.83)"><tspan x="0" y="0">RE</tspan><tspan class="cls-5" x="280.77" y="0">V</tspan><tspan class="cls-3" x="427.46" y="0">ALI</tspan></text>
</svg>